<svg xmlns="http://www.w3.org/2000/svg" viewBox="0 0 1120 680" font-family="Helvetica, Arial, sans-serif"><rect width="1120" height="680" fill="#ffffff"/><defs><marker id="arw" viewBox="0 0 10 10" refX="7" refY="5" markerWidth="7" markerHeight="7" orient="auto-start-reverse"><path d="M0,0 L10,5 L0,10 z" fill="#3f7fd0"/></marker></defs><circle cx="560" cy="344" r="232" fill="none" stroke="#eaf1fb" stroke-width="26"/><circle cx="560" cy="344" r="232" fill="none" stroke="#d6e2f4" stroke-width="1.5"/><g transform="translate(676.0,143.1) rotate(30.0)"><path d="M-9,-7 L9,0 L-9,7 L-4,0 z" fill="#3f7fd0"/></g><g transform="translate(792.0,344.0) rotate(90.0)"><path d="M-9,-7 L9,0 L-9,7 L-4,0 z" fill="#3f7fd0"/></g><g transform="translate(676.0,544.9) rotate(150.0)"><path d="M-9,-7 L9,0 L-9,7 L-4,0 z" fill="#3f7fd0"/></g><g transform="translate(444.0,544.9) rotate(210.0)"><path d="M-9,-7 L9,0 L-9,7 L-4,0 z" fill="#3f7fd0"/></g><g transform="translate(328.0,344.0) rotate(270.0)"><path d="M-9,-7 L9,0 L-9,7 L-4,0 z" fill="#3f7fd0"/></g><g transform="translate(444.0,143.1) rotate(330.0)"><path d="M-9,-7 L9,0 L-9,7 L-4,0 z" fill="#3f7fd0"/></g><text x="560" y="336" text-anchor="middle" font-size="19" font-weight="700" fill="#0f1726">Healthy Aging Policy</text><text x="560" y="360" text-anchor="middle" font-size="19" font-weight="700" fill="#0f1726">Intelligence Cycle</text><text x="560" y="384" text-anchor="middle" font-size="12.5" fill="#5b6b86">a policy-level learning health system</text><text x="713.0" y="76.0" text-anchor="start" font-size="13" font-weight="700" fill="#3f7fd0">RQ1 · traceability</text><text x="713.0" y="92.0" text-anchor="start" font-size="11" font-style="italic" fill="#5b6b86">lineage</text><text x="866.0" y="341.0" text-anchor="start" font-size="13" font-weight="700" fill="#3f7fd0">RQ2 · reproducibility</text><text x="866.0" y="357.0" text-anchor="start" font-size="11" font-style="italic" fill="#5b6b86">versioned</text><text x="713.0" y="606.0" text-anchor="start" font-size="13" font-weight="700" fill="#3f7fd0">RQ4 · robustness</text><text x="713.0" y="622.0" text-anchor="start" font-size="11" font-style="italic" fill="#5b6b86">audited weights</text><text x="407.0" y="606.0" text-anchor="end" font-size="13" font-weight="700" fill="#5b6b86">causal honesty</text><text x="407.0" y="622.0" text-anchor="end" font-size="11" font-style="italic" fill="#5b6b86">association ≠ cause</text><text x="407.0" y="76.0" text-anchor="end" font-size="13" font-weight="700" fill="#3f7fd0">RQ3 · grounding</text><text x="407.0" y="92.0" text-anchor="end" font-size="11" font-style="italic" fill="#5b6b86">cited AI</text><rect x="472.0" y="81.0" width="176" height="62" rx="13" fill="#ffffff" stroke="#3f7fd0" stroke-width="1.7"/><text x="560.0" y="108.0" text-anchor="middle" font-size="16.5" font-weight="700" fill="#0f1726">Observation</text><text x="560.0" y="127.0" text-anchor="middle" font-size="11.5" fill="#5b6b86">source-linked datum</text><rect x="672.9" y="197.0" width="176" height="62" rx="13" fill="#ffffff" stroke="#3f7fd0" stroke-width="1.7"/><text x="760.9" y="224.0" text-anchor="middle" font-size="16.5" font-weight="700" fill="#0f1726">Evidence</text><text x="760.9" y="243.0" text-anchor="middle" font-size="11.5" fill="#5b6b86">quality-checked body</text><rect x="672.9" y="429.0" width="176" height="62" rx="13" fill="#ffffff" stroke="#3f7fd0" stroke-width="1.7"/><text x="760.9" y="456.0" text-anchor="middle" font-size="16.5" font-weight="700" fill="#0f1726">Indicator</text><text x="760.9" y="475.0" text-anchor="middle" font-size="11.5" fill="#5b6b86">normalized measure (HAPI)</text><rect x="472.0" y="545.0" width="176" height="62" rx="13" fill="#dcebff" stroke="#3f7fd0" stroke-width="2.8"/><text x="560.0" y="572.0" text-anchor="middle" font-size="16.5" font-weight="700" fill="#0f1726">Policy</text><text x="560.0" y="591.0" text-anchor="middle" font-size="11.5" fill="#5b6b86">versioned record</text><rect x="271.1" y="429.0" width="176" height="62" rx="13" fill="#ffffff" stroke="#3f7fd0" stroke-width="1.7"/><text x="359.1" y="456.0" text-anchor="middle" font-size="16.5" font-weight="700" fill="#0f1726">Outcome</text><text x="359.1" y="475.0" text-anchor="middle" font-size="11.5" fill="#5b6b86">analyzed movement</text><rect x="271.1" y="197.0" width="176" height="62" rx="13" fill="#ffffff" stroke="#3f7fd0" stroke-width="1.7"/><text x="359.1" y="224.0" text-anchor="middle" font-size="16.5" font-weight="700" fill="#0f1726">Feedback</text><text x="359.1" y="243.0" text-anchor="middle" font-size="11.5" fill="#5b6b86">cited synthesis</text></svg>