<svg xmlns="http://www.w3.org/2000/svg" viewBox="0 0 980 660" font-family="Helvetica, Arial, sans-serif"><rect width="980" height="660" fill="#ffffff"/><defs><marker id="arw" viewBox="0 0 10 10" refX="7" refY="5" markerWidth="7" markerHeight="7" orient="auto-start-reverse"><path d="M0,0 L10,5 L0,10 z" fill="#3f7fd0"/></marker></defs><circle cx="490" cy="336" r="232" fill="none" stroke="#eaf1fb" stroke-width="26"/><circle cx="490" cy="336" r="232" fill="none" stroke="#d6e2f4" stroke-width="1.5"/><g transform="translate(606.0,135.1) rotate(30.0)"><path d="M-9,-7 L9,0 L-9,7 L-4,0 z" fill="#3f7fd0"/></g><g transform="translate(722.0,336.0) rotate(90.0)"><path d="M-9,-7 L9,0 L-9,7 L-4,0 z" fill="#3f7fd0"/></g><g transform="translate(606.0,536.9) rotate(150.0)"><path d="M-9,-7 L9,0 L-9,7 L-4,0 z" fill="#3f7fd0"/></g><g transform="translate(374.0,536.9) rotate(210.0)"><path d="M-9,-7 L9,0 L-9,7 L-4,0 z" fill="#3f7fd0"/></g><g transform="translate(258.0,336.0) rotate(270.0)"><path d="M-9,-7 L9,0 L-9,7 L-4,0 z" fill="#3f7fd0"/></g><g transform="translate(374.0,135.1) rotate(330.0)"><path d="M-9,-7 L9,0 L-9,7 L-4,0 z" fill="#3f7fd0"/></g><text x="490" y="328" text-anchor="middle" font-size="19" font-weight="700" fill="#0f1726">Healthy Aging Policy</text><text x="490" y="352" text-anchor="middle" font-size="19" font-weight="700" fill="#0f1726">Intelligence Cycle</text><text x="490" y="376" text-anchor="middle" font-size="12.5" fill="#5b6b86">a policy-level learning health system</text><text x="758.5" y="181.0" text-anchor="start" font-size="12.5" font-style="italic" fill="#3f7fd0">traceable — lineage</text><text x="758.5" y="491.0" text-anchor="start" font-size="12.5" font-style="italic" fill="#3f7fd0">reproducible — versioned</text><text x="221.5" y="491.0" text-anchor="end" font-size="12.5" font-style="italic" fill="#3f7fd0">honest — causal tag</text><text x="221.5" y="181.0" text-anchor="end" font-size="12.5" font-style="italic" fill="#3f7fd0">grounded — cited AI</text><rect x="402.0" y="73.0" width="176" height="62" rx="13" fill="#ffffff" stroke="#3f7fd0" stroke-width="1.7"/><text x="490.0" y="100.0" text-anchor="middle" font-size="16.5" font-weight="700" fill="#0f1726">Observation</text><text x="490.0" y="119.0" text-anchor="middle" font-size="11.5" fill="#5b6b86">source-linked datum</text><rect x="602.9" y="189.0" width="176" height="62" rx="13" fill="#ffffff" stroke="#3f7fd0" stroke-width="1.7"/><text x="690.9" y="216.0" text-anchor="middle" font-size="16.5" font-weight="700" fill="#0f1726">Evidence</text><text x="690.9" y="235.0" text-anchor="middle" font-size="11.5" fill="#5b6b86">quality-checked body</text><rect x="602.9" y="421.0" width="176" height="62" rx="13" fill="#ffffff" stroke="#3f7fd0" stroke-width="1.7"/><text x="690.9" y="448.0" text-anchor="middle" font-size="16.5" font-weight="700" fill="#0f1726">Indicator</text><text x="690.9" y="467.0" text-anchor="middle" font-size="11.5" fill="#5b6b86">normalized measure (HAPI)</text><rect x="402.0" y="537.0" width="176" height="62" rx="13" fill="#ffffff" stroke="#3f7fd0" stroke-width="1.7"/><text x="490.0" y="564.0" text-anchor="middle" font-size="16.5" font-weight="700" fill="#0f1726">Policy</text><text x="490.0" y="583.0" text-anchor="middle" font-size="11.5" fill="#5b6b86">versioned record</text><rect x="201.1" y="421.0" width="176" height="62" rx="13" fill="#ffffff" stroke="#3f7fd0" stroke-width="1.7"/><text x="289.1" y="448.0" text-anchor="middle" font-size="16.5" font-weight="700" fill="#0f1726">Outcome</text><text x="289.1" y="467.0" text-anchor="middle" font-size="11.5" fill="#5b6b86">analyzed movement</text><rect x="201.1" y="189.0" width="176" height="62" rx="13" fill="#ffffff" stroke="#3f7fd0" stroke-width="1.7"/><text x="289.1" y="216.0" text-anchor="middle" font-size="16.5" font-weight="700" fill="#0f1726">Feedback</text><text x="289.1" y="235.0" text-anchor="middle" font-size="11.5" fill="#5b6b86">cited synthesis</text></svg>